<svg xmlns="http://www.w3.org/2000/svg" xmlns:xlink="http://www.w3.org/1999/xlink" width="250" zoomAndPan="magnify" viewBox="0 0 187.5 187.499992" height="250" preserveAspectRatio="xMidYMid meet" version="1.0"><path fill="#707bfb" d="M 93.5 187 C 144.996094 187 187 144.996094 187 93.5 C 187 42.003906 144.996094 0 93.5 0 C 42.003906 0 0 42.003906 0 93.5 C 0 144.996094 42.003906 187 93.5 187 Z M 93.5 187 " fill-opacity="1" fill-rule="evenodd"/><path fill="#ffffff" d="M 60.367188 83.363281 L 64.523438 46.601562 L 51.925781 46.601562 C 46.082031 46.601562 43.832031 48.382812 43.300781 53.398438 L 43.289062 53.5 L 37.449219 74.714844 C 36.5 78.160156 36.960938 81.246094 38.773438 83.632812 C 40.941406 86.480469 45.03125 88.246094 49.445312 88.246094 C 53.949219 88.242188 58.007812 86.425781 60.367188 83.363281 Z M 60.367188 83.363281 " fill-opacity="1" fill-rule="evenodd"/><path fill="#ffffff" d="M 78.878906 88.769531 C 83.589844 88.769531 87.917969 86.421875 89.996094 82.761719 L 89.953125 46.597656 L 71.1875 46.597656 L 68.121094 82.328125 C 70.023438 86.367188 74.019531 88.769531 78.878906 88.769531 Z M 78.878906 88.769531 " fill-opacity="1" fill-rule="evenodd"/><path fill="#ffffff" d="M 133.980469 94.472656 C 128.746094 93.980469 124.265625 91.675781 121.382812 87.953125 C 119.742188 90.214844 117.480469 92.03125 114.636719 93.273438 C 112.085938 94.359375 109.425781 94.832031 106.65625 94.695312 C 101.199219 94.472656 96.496094 92.03125 93.480469 88.085938 C 92.105469 89.902344 90.242188 91.453125 88.070312 92.652344 C 85.675781 93.894531 82.96875 94.558594 80.308594 94.695312 C 74.1875 94.960938 67.535156 92.34375 64.296875 87.90625 C 60.925781 92.253906 58.796875 93.941406 52.984375 94.472656 C 51.082031 94.605469 49.191406 94.515625 47.308594 94.207031 L 47.308594 133.769531 C 47.308594 139.042969 51.609375 143.394531 56.890625 143.394531 L 62.210938 143.394531 L 62.210938 107.910156 C 62.210938 107.410156 62.304688 106.929688 62.496094 106.46875 C 62.6875 106.003906 62.960938 105.597656 63.316406 105.242188 C 63.667969 104.890625 64.074219 104.617188 64.539062 104.425781 C 65 104.234375 65.480469 104.140625 65.980469 104.140625 L 83.199219 104.140625 C 83.699219 104.140625 84.179688 104.234375 84.640625 104.425781 C 85.105469 104.617188 85.511719 104.890625 85.867188 105.242188 C 86.21875 105.597656 86.492188 106.003906 86.683594 106.46875 C 86.875 106.929688 86.96875 107.410156 86.96875 107.910156 L 86.96875 143.394531 L 130.082031 143.394531 C 135.355469 143.394531 139.707031 139.046875 139.707031 133.769531 L 139.707031 94.207031 C 137.808594 94.515625 135.898438 94.605469 133.980469 94.472656 Z M 131.140625 127.339844 C 131.144531 127.804688 131.054688 128.253906 130.878906 128.683594 C 130.703125 129.113281 130.449219 129.492188 130.121094 129.824219 C 129.789062 130.152344 129.410156 130.40625 128.980469 130.582031 C 128.550781 130.757812 128.101562 130.847656 127.636719 130.84375 L 100.445312 130.84375 C 99.980469 130.847656 99.535156 130.757812 99.101562 130.582031 C 98.671875 130.40625 98.292969 130.152344 97.964844 129.824219 C 97.632812 129.492188 97.382812 129.113281 97.203125 128.683594 C 97.027344 128.253906 96.941406 127.804688 96.941406 127.339844 L 96.941406 110.882812 C 96.945312 110.417969 97.035156 109.972656 97.210938 109.542969 C 97.390625 109.113281 97.644531 108.734375 97.972656 108.40625 C 98.300781 108.078125 98.679688 107.824219 99.105469 107.648438 C 99.535156 107.46875 99.984375 107.378906 100.445312 107.378906 L 127.636719 107.378906 C 128.101562 107.378906 128.546875 107.46875 128.976562 107.648438 C 129.40625 107.824219 129.785156 108.078125 130.113281 108.40625 C 130.441406 108.734375 130.691406 109.113281 130.871094 109.542969 C 131.050781 109.972656 131.140625 110.417969 131.140625 110.882812 Z M 131.140625 127.339844 " fill-opacity="1" fill-rule="evenodd"/><path fill="#ffffff" d="M 149.5625 74.710938 L 143.675781 53.496094 L 143.667969 53.386719 C 143.175781 48.375 140.917969 46.597656 135.039062 46.597656 L 122.402344 46.597656 L 126.601562 83.359375 C 128.957031 86.425781 133.015625 88.238281 137.527344 88.238281 C 141.941406 88.238281 146.039062 86.472656 148.210938 83.625 C 150.039062 81.238281 150.503906 78.152344 149.5625 74.710938 Z M 149.5625 74.710938 " fill-opacity="1" fill-rule="evenodd"/><path fill="#ffffff" d="M 108.191406 88.703125 C 113 88.703125 116.960938 86.328125 118.84375 82.328125 L 115.78125 46.597656 L 96.714844 46.597656 L 96.96875 82.621094 C 99.066406 86.328125 103.433594 88.703125 108.191406 88.703125 Z M 108.191406 88.703125 " fill-opacity="1" fill-rule="evenodd"/></svg>